<svg xmlns="http://www.w3.org/2000/svg" viewBox="0 0 512 512" width="1024" height="1024"><path d="M256 470 C 250 360 270 250 256 110" fill="none" stroke="#161616" stroke-width="1.8" stroke-linecap="round"/><path d="M256 420 C 196 390 182 412 168 380" fill="none" stroke="#161616" stroke-width="1.8" stroke-linecap="round"/><path d="M256 406 C 316 376 330 398 344 366" fill="none" stroke="#161616" stroke-width="1.8" stroke-linecap="round"/><path d="M256 386 C 199.5 356 185.5 378 171.5 346" fill="none" stroke="#161616" stroke-width="1.8" stroke-linecap="round"/><path d="M256 372 C 312.5 342 326.5 364 340.5 332" fill="none" stroke="#161616" stroke-width="1.8" stroke-linecap="round"/><path d="M256 352 C 203 322 189 344 175 312" fill="none" stroke="#161616" stroke-width="1.8" stroke-linecap="round"/><path d="M256 338 C 309 308 323 330 337 298" fill="none" stroke="#161616" stroke-width="1.8" stroke-linecap="round"/><path d="M256 318 C 206.5 288 192.5 310 178.5 278" fill="none" stroke="#161616" stroke-width="1.8" stroke-linecap="round"/><path d="M256 304 C 305.5 274 319.5 296 333.5 264" fill="none" stroke="#161616" stroke-width="1.8" stroke-linecap="round"/><path d="M256 284 C 210 254 196 276 182 244" fill="none" stroke="#161616" stroke-width="1.8" stroke-linecap="round"/><path d="M256 270 C 302 240 316 262 330 230" fill="none" stroke="#161616" stroke-width="1.8" stroke-linecap="round"/><path d="M256 250 C 213.5 220 199.5 242 185.5 210" fill="none" stroke="#161616" stroke-width="1.8" stroke-linecap="round"/><path d="M256 236 C 298.5 206 312.5 228 326.5 196" fill="none" stroke="#161616" stroke-width="1.8" stroke-linecap="round"/><path d="M256 216 C 217 186 203 208 189 176" fill="none" stroke="#161616" stroke-width="1.8" stroke-linecap="round"/><path d="M256 202 C 295 172 309 194 323 162" fill="none" stroke="#161616" stroke-width="1.8" stroke-linecap="round"/><path d="M256 182 C 220.5 152 206.5 174 192.5 142" fill="none" stroke="#161616" stroke-width="1.8" stroke-linecap="round"/><path d="M256 168 C 291.5 138 305.5 160 319.5 128" fill="none" stroke="#161616" stroke-width="1.8" stroke-linecap="round"/><path d="M256 148 C 224 118 210 140 196 108" fill="none" stroke="#161616" stroke-width="1.8" stroke-linecap="round"/><path d="M256 134 C 288 104 302 126 316 94" fill="none" stroke="#161616" stroke-width="1.8" stroke-linecap="round"/><circle cx="256" cy="104" r="7" fill="none" stroke="#161616" stroke-width="1.8"/></svg>